# xmcd CD database file
#
# Track frame offsets:
#	150
#	13087
#	31237
#	49980
#	66795
#	82247
#	100350
#	118820
#	135680
#	152085
#	168927
#	186175
#
# Disc length: 2666 seconds
#
# Revision: 0
# Processed by: cddbd v1.4PL0 Copyright (c) Steve Scherf et al.
# Submitted via: CDex 1.50
#
DISCID=a50a680c
DTITLE=Jamie O'neal - Jamie O'neal
DYEAR=2003
DGENRE=Country
TTITLE0=Every Little Thing
TTITLE1=Naive
TTITLE2=On My Way To You
TTITLE3=Don't Let Me Go
TTITLE4=Tryin' To Find Atlantis
TTITLE5=Follow Me Home
TTITLE6=Ready When It Comes
TTITLE7=When Did You Know?
TTITLE8=In The Meantime
TTITLE9=I Wonder
TTITLE10=Maury County
TTITLE11=Wanna Do Something Fun!
EXTD=YEAR: 2003
EXTT0=
EXTT1=
EXTT2=
EXTT3=
EXTT4=
EXTT5=
EXTT6=
EXTT7=
EXTT8=
EXTT9=
EXTT10=
EXTT11=
PLAYORDER=
